<svg width="16" height="17" viewBox="0 0 16 17" fill="none" xmlns="http://www.w3.org/2000/svg">
<path d="M0.867439 4.5C0.867439 3.67157 1.53901 3 2.36744 3H5.13137C6.08914 3 6.89217 3.55996 7.44285 4.18398C7.85268 4.64839 8.34615 5 8.86744 5H13.3681C14.197 5 14.8674 5.67203 14.8674 6.5V7.13933C15.437 7.40467 15.8068 8.0161 15.7231 8.68605L15.0826 13.8101C14.9262 15.0612 13.8627 16 12.6019 16H3.133C1.8722 16 0.808693 15.0612 0.652309 13.8101L0.0118042 8.68605C-0.07194 8.0161 0.297893 7.40467 0.867439 7.13933V4.5ZM1.86744 7H13.8674V6.5C13.8674 6.22341 13.6438 6 13.3681 6H8.86744C7.90354 6 7.15691 5.37127 6.69306 4.84565C6.24125 4.33367 5.68869 4 5.13137 4H2.36744C2.0913 4 1.86744 4.22386 1.86744 4.5V7ZM1.50022 8C1.19947 8 0.966779 8.26359 1.00408 8.56202L1.64459 13.6861C1.73842 14.4367 2.37652 15 3.133 15H12.6019C13.3584 15 13.9965 14.4367 14.0903 13.6861L14.7308 8.56202C14.7681 8.26359 14.5354 8 14.2347 8H1.50022Z" fill="white"/>
</svg>
