<svg width="16" height="17" viewBox="0 0 16 17" fill="none" xmlns="http://www.w3.org/2000/svg">
<g clip-path="url(#clip0_17_573)">
<path fill-rule="evenodd" clip-rule="evenodd" d="M8.0074 1.50001C5.26461 1.49479 3.01564 3.72216 3.00006 6.44172C2.9952 7.26062 3.27076 8.04439 3.70643 8.91101L3.70765 8.91344C4.82846 11.1581 6.34288 13.1591 8.00023 15.1412C8.42161 14.6399 8.83242 14.1455 9.22611 13.638C10.4212 12.0941 11.5127 10.5586 12.3225 8.87201C12.7226 8.03481 12.9896 7.28711 12.9999 6.51361C13.0192 3.76731 10.7705 1.50523 8.0074 1.50001ZM13.9998 6.52369C13.9873 7.51925 13.6434 8.42722 13.2244 9.30383C12.3678 11.0884 11.2234 12.6914 10.0165 14.2505C9.52956 14.8783 9.01753 15.486 8.5073 16.0916C8.44756 16.1625 8.38785 16.2334 8.32821 16.3043C8.10938 16.561 7.89678 16.5673 7.6779 16.3106C5.83951 14.144 4.08863 11.9149 2.81298 9.36017C2.35025 8.43974 1.99383 7.48795 2.00008 6.43599C2.01884 3.16119 4.7202 0.493751 8.00931 0.500011C11.3235 0.506271 14.0248 3.21753 13.9998 6.52369Z" fill="#9FC53A"/>
<path fill-rule="evenodd" clip-rule="evenodd" d="M9.49995 6.51666C9.50659 5.6919 8.83328 5.01349 8.01334 5.00019C7.19339 4.98689 6.50675 5.6653 6.50005 6.49007C6.49341 7.32148 7.15339 7.9933 7.98666 7.99995C8.82664 8.0066 9.49995 7.34808 9.49995 6.51666ZM7.99464 6.99998C8.29136 7.0023 8.49995 6.78062 8.49995 6.51666V6.50862C8.50211 6.24063 8.27576 6.00458 7.99712 6.00006C7.74189 5.99592 7.50236 6.21943 7.50002 6.49805M7.99464 6.99998C7.71396 6.99771 7.49786 6.77736 7.50002 6.49805L7.99464 6.99998Z" fill="#9FC53A"/>
</g>
<defs>
<clipPath id="clip0_17_573">
<rect width="16" height="16" fill="white" transform="translate(0 0.5)"/>
</clipPath>
</defs>
</svg>
