<svg width="16" height="17" viewBox="0 0 16 17" fill="none" xmlns="http://www.w3.org/2000/svg">
<path d="M11 7C11 6.72386 11.2239 6.5 11.5 6.5H12.5C12.7761 6.5 13 6.72386 13 7V8C13 8.27614 12.7761 8.5 12.5 8.5H11.5C11.2239 8.5 11 8.27614 11 8V7Z" fill="#3C388D"/>
<path d="M8 7C8 6.72386 8.22386 6.5 8.5 6.5H9.5C9.77614 6.5 10 6.72386 10 7V8C10 8.27614 9.77614 8.5 9.5 8.5H8.5C8.22386 8.5 8 8.27614 8 8V7Z" fill="#3C388D"/>
<path d="M3 10C3 9.72386 3.22386 9.5 3.5 9.5H4.5C4.77614 9.5 5 9.72386 5 10V11C5 11.2761 4.77614 11.5 4.5 11.5H3.5C3.22386 11.5 3 11.2761 3 11V10Z" fill="#3C388D"/>
<path d="M6 10C6 9.72386 6.22386 9.5 6.5 9.5H7.5C7.77614 9.5 8 9.72386 8 10V11C8 11.2761 7.77614 11.5 7.5 11.5H6.5C6.22386 11.5 6 11.2761 6 11V10Z" fill="#3C388D"/>
<path d="M3.5 0.5C3.77614 0.5 4 0.723858 4 1V1.5H12V1C12 0.723858 12.2239 0.5 12.5 0.5C12.7761 0.5 13 0.723858 13 1V1.5H14C15.1046 1.5 16 2.39543 16 3.5V14.5C16 15.6046 15.1046 16.5 14 16.5H2C0.895431 16.5 0 15.6046 0 14.5V3.5C0 2.39543 0.895431 1.5 2 1.5H3V1C3 0.723858 3.22386 0.5 3.5 0.5ZM1 4.5V14.5C1 15.0523 1.44772 15.5 2 15.5H14C14.5523 15.5 15 15.0523 15 14.5V4.5H1Z" fill="#3C388D"/>
</svg>
