<svg width="24" height="24" viewBox="0 0 24 24" fill="none" xmlns="http://www.w3.org/2000/svg">
<g clip-path="url(#clip0_2_428)">
<path fill-rule="evenodd" clip-rule="evenodd" d="M4 0.5C4 0.223858 4.22386 0 4.5 0C4.77614 0 5 0.223858 5 0.5C5 1.75626 5.31373 2.60662 5.85355 3.14645C6.39338 3.68627 7.24374 4 8.5 4C8.77614 4 9 4.22386 9 4.5C9 4.77614 8.77614 5 8.5 5C7.24374 5 6.39338 5.31373 5.85355 5.85355C5.31373 6.39338 5 7.24374 5 8.5C5 8.77614 4.77614 9 4.5 9C4.22386 9 4 8.77614 4 8.5C4 7.24374 3.68627 6.39338 3.14645 5.85355C2.60662 5.31373 1.75626 5 0.5 5C0.223857 5 0 4.77614 0 4.5C0 4.22386 0.223857 4 0.5 4C1.75626 4 2.60662 3.68627 3.14645 3.14645C3.68627 2.60662 4 1.75626 4 0.5ZM2.95176 4.5C3.28909 4.66931 3.59084 4.88373 3.85355 5.14645C4.11627 5.40916 4.33069 5.71091 4.5 6.04824C4.66931 5.71091 4.88373 5.40916 5.14645 5.14645C5.40916 4.88373 5.71091 4.66931 6.04824 4.5C5.71091 4.33069 5.40916 4.11627 5.14645 3.85355C4.88373 3.59084 4.66931 3.28909 4.5 2.95176C4.33069 3.28909 4.11627 3.59084 3.85355 3.85355C3.59084 4.11627 3.28909 4.33069 2.95176 4.5Z" fill="#3C388D"/>
<path fill-rule="evenodd" clip-rule="evenodd" d="M11.5 0C11.7761 0 12 0.223858 12 0.5C12 1.08959 12.1471 1.43995 12.3536 1.64645C12.56 1.85294 12.9104 2 13.5 2C13.7761 2 14 2.22386 14 2.5C14 2.77614 13.7761 3 13.5 3C12.9104 3 12.56 3.14706 12.3536 3.35355C12.1471 3.56005 12 3.91041 12 4.5C12 4.77614 11.7761 5 11.5 5C11.2239 5 11 4.77614 11 4.5C11 3.91041 10.8529 3.56005 10.6464 3.35355C10.44 3.14706 10.0896 3 9.5 3C9.22386 3 9 2.77614 9 2.5C9 2.22386 9.22386 2 9.5 2C10.0896 2 10.44 1.85294 10.6464 1.64645C10.8529 1.43995 11 1.08959 11 0.5C11 0.223858 11.2239 0 11.5 0ZM11.6464 2.64645C11.5941 2.69876 11.5454 2.75352 11.5 2.81059C11.4546 2.75352 11.4059 2.69876 11.3536 2.64645C11.3012 2.59413 11.2465 2.54536 11.1894 2.5C11.2465 2.45464 11.3012 2.40587 11.3536 2.35355C11.4059 2.30124 11.4546 2.24648 11.5 2.18941C11.5454 2.24648 11.5941 2.30124 11.6464 2.35355C11.6988 2.40587 11.7535 2.45464 11.8106 2.5C11.7535 2.54536 11.6988 2.59413 11.6464 2.64645Z" fill="#3C388D"/>
<path fill-rule="evenodd" clip-rule="evenodd" d="M21.0938 8.5581L15.7905 3.2548C15.5953 3.05954 15.5953 2.74295 15.7905 2.54769C15.9858 2.35243 16.3024 2.35243 16.4976 2.54769L21.8009 7.85099C22.582 8.63204 22.582 9.89837 21.8009 10.6794L9.48033 23H23.4998C23.776 23 23.9998 23.2239 23.9998 23.5C23.9998 23.7762 23.776 24 23.4998 24H7.49983C7.43249 24 7.36826 23.9867 7.30962 23.9626C6.91953 23.8938 6.54594 23.7087 6.24459 23.4073L0.587739 17.7505C-0.193309 16.9694 -0.193309 15.7031 0.587739 14.9221L8.71947 6.79033C8.91473 6.59507 9.23131 6.59507 9.42657 6.79033C9.62184 6.98559 9.62184 7.30218 9.42657 7.49744L8.16898 8.75504L15.24 15.8261L21.0938 9.97231C21.4844 9.58179 21.4844 8.94862 21.0938 8.5581ZM14.5329 16.5332L7.46187 9.46214L3.81552 13.1085L10.8866 20.1796L14.5329 16.5332ZM10.1795 20.8867L3.10842 13.8156L1.29485 15.6292C0.904322 16.0197 0.904322 16.6529 1.29485 17.0434L6.9517 22.7002C7.34222 23.0908 7.97539 23.0908 8.36591 22.7002L10.1795 20.8867Z" fill="#3C388D"/>
</g>
<defs>
<clipPath id="clip0_2_428">
<rect width="24" height="24" fill="white"/>
</clipPath>
</defs>
</svg>
