<svg width="34" height="34" viewBox="0 0 34 34" fill="none" xmlns="http://www.w3.org/2000/svg">
<rect x="1" y="1" width="32" height="32" rx="3" stroke="#3C388D" stroke-width="2"/>
<path d="M12.7071 9.29291L9.29289 12.7071C9.20738 12.7926 9.13896 12.892 9.08982 13H13V9.08981C12.892 9.13895 12.7926 9.2074 12.7071 9.29291Z" fill="#3C388D"/>
<path d="M9 14H13.5C13.7761 14 14 13.7762 14 13.5V9H17.4444C17.7513 9 18 9.26456 18 9.59091V13.5L15 16.5V21H9.55556C9.24873 21 9 20.7354 9 20.4091V14Z" fill="#3C388D"/>
<path d="M20 13.0898C19.892 13.1389 19.7926 13.2074 19.7071 13.2929L16.2929 16.7071C16.2074 16.7926 16.139 16.892 16.0898 17H20V13.0898Z" fill="#3C388D"/>
<path d="M16 18H20.5C20.7761 18 21 17.7762 21 17.5V13H24.4444C24.7513 13 25 13.2646 25 13.5909V24.4091C25 24.7354 24.7513 25 24.4444 25H16.5556C16.2487 25 16 24.7354 16 24.4091V18Z" fill="#3C388D"/>
</svg>
