<svg width="34" height="34" viewBox="0 0 34 34" fill="none" xmlns="http://www.w3.org/2000/svg">
<rect x="1" y="1" width="32" height="32" rx="3" stroke="#3C388D" stroke-width="2"/>
<path d="M10 12C10 11.4477 10.4477 11 11 11H23C23.5523 11 24 11.4477 24 12C24 12.5523 23.5523 13 23 13H11C10.4477 13 10 12.5523 10 12Z" fill="#3C388D"/>
<path d="M15 11C15 10 15.8 9 17 9C18.2 9 19 10 19 11H15Z" fill="#3C388D"/>
<path fill-rule="evenodd" clip-rule="evenodd" d="M11 15C11 14.4477 11.4477 14 12 14H22C22.5523 14 23 14.4477 23 15V24C23 24.5523 22.5523 25 22 25H12C11.4477 25 11 24.5523 11 24V15ZM16 15.5C16 15.2239 16.2239 15 16.5 15C16.7761 15 17 15.2239 17 15.5V23.5C17 23.7761 16.7761 24 16.5 24C16.2239 24 16 23.7761 16 23.5V15.5ZM13.5 15C13.2239 15 13 15.2239 13 15.5V23.5C13 23.7761 13.2239 24 13.5 24C13.7761 24 14 23.7761 14 23.5V15.5C14 15.2239 13.7761 15 13.5 15Z" fill="#3C388D"/>
</svg>
