<svg width="8" height="9" viewBox="0 0 8 9" fill="none" xmlns="http://www.w3.org/2000/svg">
<path d="M0.646447 1.14645C0.841709 0.951184 1.15829 0.951184 1.35355 1.14645L4 3.79289L6.64645 1.14645C6.84171 0.951184 7.15829 0.951184 7.35355 1.14645C7.54882 1.34171 7.54882 1.65829 7.35355 1.85355L4.70711 4.5L7.35355 7.14645C7.54882 7.34171 7.54882 7.65829 7.35355 7.85355C7.15829 8.04882 6.84171 8.04882 6.64645 7.85355L4 5.20711L1.35355 7.85355C1.15829 8.04882 0.841709 8.04882 0.646447 7.85355C0.451184 7.65829 0.451184 7.34171 0.646447 7.14645L3.29289 4.5L0.646447 1.85355C0.451184 1.65829 0.451184 1.34171 0.646447 1.14645Z" fill="#9E9CC6" stroke="#9E9CC6" stroke-linecap="round" stroke-linejoin="round"/>
</svg>
