<svg width="34" height="34" viewBox="0 0 34 34" fill="none" xmlns="http://www.w3.org/2000/svg">
<rect x="1" y="1" width="32" height="32" rx="3" stroke="#3C388D" stroke-width="2"/>
<path fill-rule="evenodd" clip-rule="evenodd" d="M21.5568 14.3333C21.729 14.3333 21.8207 14.5365 21.7068 14.6657L17.15 19.83C17.0703 19.9203 16.9297 19.9203 16.85 19.83L12.2932 14.6657C12.1793 14.5365 12.271 14.3333 12.4432 14.3333H14.8C14.9105 14.3333 15 14.2438 15 14.1333V9.2C15 9.08954 15.0895 9 15.2 9L18.8 9C18.9105 9 19 9.08954 19 9.2V14.1333C19 14.2438 19.0895 14.3333 19.2 14.3333L21.5568 14.3333Z" fill="#3C388D"/>
<path d="M9 20.2C9 20.0895 9.08954 20 9.2 20H14.9172C14.9702 20 15.0211 20.0211 15.0586 20.0586L16.8586 21.8586C16.9367 21.9367 17.0633 21.9367 17.1414 21.8586L18.9414 20.0586C18.9789 20.0211 19.0298 20 19.0828 20H24.8C24.9105 20 25 20.0895 25 20.2V24.8C25 24.9105 24.9105 25 24.8 25H9.2C9.08954 25 9 24.9105 9 24.8V20.2Z" fill="#3C388D"/>
</svg>
