<svg width="34" height="34" viewBox="0 0 34 34" fill="none" xmlns="http://www.w3.org/2000/svg">
<rect x="1" y="1" width="32" height="32" rx="3" stroke="#3C388D" stroke-width="2"/>
<path d="M10.4136 20.6678C10.2184 20.4725 10.2184 20.1559 10.4136 19.9607L21.02 9.35359C21.2153 9.15831 21.5319 9.15831 21.7271 9.3536L24.5558 12.1825C24.7511 12.3778 24.7511 12.6943 24.5558 12.8896L13.9492 23.4962C13.7539 23.6915 13.4373 23.6915 13.2421 23.4962L10.4136 20.6678Z" fill="#3C388D"/>
<path d="M9.57851 21.4155C9.45727 21.2942 9.24965 21.3718 9.23759 21.5428L9.04054 24.3361C9.01914 24.6395 9.2713 24.8915 9.57468 24.87L12.3669 24.672C12.5379 24.6598 12.6154 24.4523 12.4941 24.331L9.57851 21.4155Z" fill="#3C388D"/>
</svg>
