<svg width="16" height="16" viewBox="0 0 16 16" fill="none" xmlns="http://www.w3.org/2000/svg">
<path d="M14.5102 4C14.0552 4.00608 13.9836 4.00608 13.5102 4C13.0102 4 12.9979 3.5 12.9979 3.5V0H3.01022V0.5C3.01022 1.74696 2.97942 2.25304 2.99789 3.5C3.00403 3.80413 2.7992 4.01216 2.51022 4C1.74225 4 2.00821 4 1.49791 4C0.510187 4 -1.25173e-05 4.49997 2.30329e-10 5.5C2.50346e-05 7.5 0 9.5 3.88103e-05 11.5C-4.9274e-06 12.461 0.51019 12.9993 1.55468 13C2.01022 12.9939 2.44456 12.9993 2.99791 12.9993L2.99789 15.9993L12.9979 16L12.9979 12.9993C13.6619 12.9993 13.8831 13 14.4979 13C15.4979 13.0061 16.0001 11.5 16.0001 11.5C16.0001 11.5 16 8 16 5.5C16 4.5 15.5102 4.00608 14.5102 4ZM3.99789 1C3.97948 1.06083 3.99789 0.969588 3.99789 1H11.9979C11.9979 0.92092 12.0102 1.09124 11.9979 1C11.9856 0.908757 11.9979 3.5 11.9979 3.5C11.9979 3.5 11.9979 4 11.5102 4C8.92789 3.99392 7.08636 3.99392 4.51022 4C3.99789 4 3.99789 3.5 3.99789 3.5C3.99789 3.5 3.99789 1.03041 3.99789 1ZM11.9979 15H3.99789V10H11.9979V15ZM15.004 11.5086C15.0102 11.5 15.004 12 14.4979 12C13.8646 12.0061 13.6742 12.0014 12.9979 12.0014V9H2.99789V12C2.89338 12.0182 3.07166 12 2.99789 12C2.42607 12 2.12648 12.0074 1.55468 12.0013C1.19808 11.9952 1.00617 11.8614 1.00003 11.5086V5.5C1.00003 5.5 0.953373 5 1.51019 5C6.04148 5 9.97889 5 14.5102 5C15.004 5 15.004 5.5 15.004 5.5C15.0102 7.45865 15.004 9.54996 15.004 11.5086Z" fill="#9FC53A"/>
</svg>
