<svg width="16" height="11" viewBox="0 0 16 11" fill="none" xmlns="http://www.w3.org/2000/svg">
<path fill-rule="evenodd" clip-rule="evenodd" d="M1.22917 0.972376C1.1026 0.972376 1 1.07214 1 1.19521V2.2326L8.01081 5.73433C8.14899 5.77215 8.29706 5.77276 8.44303 5.73516L15 2.24696V1.19521C15 1.07214 14.8974 0.972376 14.7708 0.972376H1.22917ZM15 3.35868L9.13978 6.50258C9.13977 6.50258 9.13978 6.50258 9.13978 6.50258C9.04021 6.556 8.93657 6.6007 8.83016 6.63619C8.63399 6.72838 8.41223 6.7572 8.22781 6.75631C8.03949 6.7554 7.8221 6.7232 7.63185 6.63729C7.55513 6.61101 7.47939 6.5793 7.40506 6.54201L1.01015 3.3326L1 9.80479C1 9.8047 1 9.80487 1 9.80479C1.00015 9.92774 1.10269 10.0276 1.22917 10.0276H14.7708C14.8974 10.0276 15 9.92786 15 9.80479V3.35868ZM0.0109372 2.83175L5.96046e-07 9.80405C5.96046e-07 10.4641 0.550316 11 1.22917 11H14.7708C15.4497 11 16 10.4649 16 9.80479V1.19521C16 0.535112 15.4497 0 14.7708 0H1.22917C0.550316 0 0 0.535113 0 1.19521V2.82628L0.0109372 2.83175Z" fill="#9FC53A"/>
</svg>
