<svg width="16" height="17" viewBox="0 0 16 17" fill="none" xmlns="http://www.w3.org/2000/svg">
<path d="M16 8.5C16 12.9183 12.4183 16.5 8 16.5C3.58172 16.5 0 12.9183 0 8.5C0 4.08172 3.58172 0.5 8 0.5C12.4183 0.5 16 4.08172 16 8.5ZM5.49634 6.53271H6.32082C6.45889 6.53271 6.56868 6.42013 6.58723 6.28331C6.67618 5.62718 7.1265 5.14893 7.92922 5.14893C8.61477 5.14893 9.24318 5.4917 9.24318 6.31689C9.24318 6.95166 8.86867 7.24365 8.27834 7.68799C7.60549 8.17676 7.07229 8.74805 7.11037 9.6748L7.11334 9.89161C7.11521 10.0283 7.22658 10.1382 7.36332 10.1382H8.17434C8.31241 10.1382 8.42434 10.0263 8.42434 9.88818V9.78271C8.42434 9.06543 8.69729 8.85596 9.43361 8.29736C10.043 7.83398 10.6778 7.31982 10.6778 6.24072C10.6778 4.72998 9.40188 4 8.00539 4C6.73831 4 5.34964 4.59061 5.25511 6.28615C5.24752 6.42237 5.3599 6.53271 5.49634 6.53271ZM7.82131 12.9756C8.43068 12.9756 8.84963 12.582 8.84963 12.0488C8.84963 11.4966 8.43068 11.1094 7.82131 11.1094C7.23732 11.1094 6.81203 11.4966 6.81203 12.0488C6.81203 12.582 7.23732 12.9756 7.82131 12.9756Z" fill="#3C388D"/>
</svg>
