<svg width="16" height="17" viewBox="0 0 16 17" fill="none" xmlns="http://www.w3.org/2000/svg">
<path d="M2 1.5C1.44772 1.5 1 1.94772 1 2.5V7.08579C1 7.351 1.10536 7.60536 1.29289 7.79289L8.29289 14.7929C8.68342 15.1834 9.31658 15.1834 9.70711 14.7929L14.2929 10.2071C14.6834 9.81658 14.6834 9.18342 14.2929 8.79289L7.29289 1.79289C7.10536 1.60536 6.851 1.5 6.58579 1.5H2ZM6 5C6 5.82843 5.32843 6.5 4.5 6.5C3.67157 6.5 3 5.82843 3 5C3 4.17157 3.67157 3.5 4.5 3.5C5.32843 3.5 6 4.17157 6 5Z" fill="#025DAE"/>
</svg>
