<svg width="16" height="16" viewBox="0 0 16 16" fill="none" xmlns="http://www.w3.org/2000/svg">
<path fill-rule="evenodd" clip-rule="evenodd" d="M4.65743 6.05214C4.60399 5.89182 4.60399 5.83838 4.71087 5.7315L5.99342 4.44893C6.58126 3.86108 6.58126 3.11291 5.99342 2.52507L3.90928 0.440885C3.32144 -0.146962 2.62673 -0.146962 2.03889 0.440885C1.55793 0.814968 1.13042 1.24249 0.702901 1.67002C0.275382 2.09754 0.0616236 2.57851 0.00818395 3.16635C-0.0452557 4.07484 0.168503 4.92989 0.489141 5.78494C1.13042 7.54848 2.14577 9.09826 3.32144 10.4877C4.92463 12.4116 6.9019 13.9613 9.14636 15.0302C10.1617 15.5111 11.2305 15.8852 12.3527 15.9921C13.1543 16.0455 13.8491 15.8318 14.3835 15.2439C14.5705 15.0302 14.7709 14.8298 14.9713 14.6293C15.1717 14.4289 15.3721 14.2285 15.5591 14.0148C16.147 13.4269 16.147 12.6788 15.5591 12.0909C15.1316 11.6278 14.6566 11.1646 14.1816 10.7015C13.9441 10.4699 13.7065 10.2383 13.475 10.0067C12.8871 9.4189 12.1924 9.4189 11.6046 10.0067L10.2686 11.3428C10.1617 11.4496 10.1083 11.4496 9.94796 11.3428C9.81436 11.2626 9.6674 11.1958 9.52044 11.129C9.37348 11.0622 9.22652 10.9954 9.09293 10.9152C7.81037 10.1136 6.74158 9.09826 5.83311 7.92256C5.35215 7.33472 4.92463 6.74687 4.65743 6.05214ZM5.05037 8.54506C4.55582 7.93985 4.0485 7.25461 3.72409 6.41112L3.71593 6.38992L3.70875 6.36837C3.70774 6.36535 3.7065 6.36171 3.70506 6.35749C3.67961 6.28309 3.5918 6.02634 3.63408 5.73036C3.68799 5.35304 3.90922 5.11894 4.00376 5.0244L5.28631 3.74183C5.42787 3.60026 5.4343 3.50987 5.4343 3.487C5.4343 3.46412 5.42787 3.37373 5.28631 3.23217L3.20217 1.14799C3.12414 1.06996 3.06385 1.0328 3.02776 1.01591C2.99401 1.00011 2.97779 1 2.97408 1C2.97038 1 2.95415 1.00011 2.92041 1.01591C2.88432 1.0328 2.82403 1.06996 2.746 1.14799L2.70198 1.19201L2.65284 1.23023C2.22912 1.55979 1.84469 1.94243 1.41001 2.37712C1.15876 2.62837 1.04062 2.88427 1.00552 3.24159C0.967134 3.9478 1.13097 4.64847 1.42547 5.43382L1.42898 5.44319C2.01868 7.06487 2.96093 8.5135 4.08483 9.84177L4.08969 9.84751C5.60256 11.663 7.465 13.1217 9.57537 14.1269C10.5266 14.5774 11.4732 14.9014 12.4329 14.9952C12.9868 15.0294 13.3537 14.8868 13.6381 14.5771C13.845 14.3414 14.0625 14.1239 14.2544 13.932L14.2642 13.9223C14.4685 13.718 14.6451 13.5408 14.8065 13.3563L14.8285 13.3312L14.852 13.3077C14.9936 13.1661 15 13.0757 15 13.0529C15 13.03 14.9936 12.9396 14.852 12.798L14.8379 12.7839L14.8243 12.7692C14.4138 12.3245 13.9722 11.894 13.5096 11.4432C13.2676 11.2073 13.0199 10.9658 12.7679 10.7138C12.6898 10.6358 12.6295 10.5987 12.5935 10.5818C12.5597 10.566 12.5435 10.5659 12.5398 10.5659C12.5361 10.5659 12.5199 10.566 12.4861 10.5818C12.45 10.5987 12.3897 10.6358 12.3117 10.7138L11.0597 11.9659C11.0665 11.959 11.0734 11.9522 11.0541 11.9714L10.9727 12.0529C10.8962 12.1294 10.6031 12.4229 10.1283 12.4229C9.77404 12.4229 9.50093 12.2475 9.41371 12.1887C9.34098 12.1469 9.2504 12.1047 9.10663 12.0394L9.08973 12.0317C8.95359 11.9698 8.76171 11.8827 8.57842 11.7727L8.57063 11.768L8.56292 11.7632C7.17158 10.8936 6.0199 9.79746 5.05037 8.54506Z" fill="#9FC53A"/>
<path d="M15.9606 7.12357C14.5438 3.87008 12.0249 1.35125 8.82393 0.0393568C8.56155 -0.0655946 8.2467 0.0393567 8.14175 0.354211C8.0368 0.616589 8.14175 0.931443 8.40413 1.03639C11.3428 2.24334 13.6517 4.60474 14.9636 7.54338C15.0685 7.75328 15.226 7.85823 15.4359 7.85823C15.4883 7.85823 15.5933 7.85823 15.6458 7.80576C15.9606 7.70081 16.0656 7.38595 15.9606 7.12357Z" fill="#9FC53A"/>
<path d="M8.19426 3.87014C9.97843 4.6048 11.3953 6.02164 12.1824 7.80581C12.2874 8.01571 12.4448 8.12067 12.6547 8.12067C12.7072 8.12067 12.8121 8.12067 12.8646 8.06819C13.127 7.96324 13.2319 7.64839 13.127 7.38601C12.2349 5.33946 10.6081 3.76518 8.61406 2.92557C8.35169 2.82062 8.08931 2.92557 7.98436 3.18795C7.82693 3.45033 7.93188 3.76519 8.19426 3.87014Z" fill="#9FC53A"/>
</svg>
